<svg xmlns="http://www.w3.org/2000/svg" style="display: none;">

<symbol id="icon-phone" viewBox="0 0 640 640">
  <path d="M224.2 89C216.3 70.1 195.7 60.1 176.1 65.4L170.6 66.9C106 84.5 50.8 147.1 66.9 223.3C104 398.3 241.7 536 416.7 573.1C493 589.3 555.5 534 573.1 469.4L574.6 463.9C580 444.2 569.9 423.6 551.1 415.8L453.8 375.3C437.3 368.4 418.2 373.2 406.8 387.1L368.2 434.3C297.9 399.4 241.3 341 208.8 269.3L253 233.3C266.9 222 271.6 202.9 264.8 186.3L224.2 89z"/>
</symbol>

<symbol id="icon-mail" viewBox="0 0 640 640">
  <path d="M125.4 128C91.5 128 64 155.5 64 189.4C64 190.3 64 191.1 64.1 192L64 192L64 448C64 483.3 92.7 512 128 512L512 512C547.3 512 576 483.3 576 448L576 192L575.9 192C575.9 191.1 576 190.3 576 189.4C576 155.5 548.5 128 514.6 128L125.4 128zM528 256.3L528 448C528 456.8 520.8 464 512 464L128 464C119.2 464 112 456.8 112 448L112 256.3L266.8 373.7C298.2 397.6 341.7 397.6 373.2 373.7L528 256.3zM112 189.4C112 182 118 176 125.4 176L514.6 176C522 176 528 182 528 189.4C528 193.6 526 197.6 522.7 200.1L344.2 335.5C329.9 346.3 310.1 346.3 295.8 335.5L117.3 200.1C114 197.6 112 193.6 112 189.4z"/>
</symbol>

<symbol id="icon-locate" viewBox="0 0 640 640">
  <path d="M128 252.6C128 148.4 214 64 320 64C426 64 512 148.4 512 252.6C512 371.9 391.8 514.9 341.6 569.4C329.8 582.2 310.1 582.2 298.3 569.4C248.1 514.9 127.9 371.9 127.9 252.6zM320 320C355.3 320 384 291.3 384 256C384 220.7 355.3 192 320 192C284.7 192 256 220.7 256 256C256 291.3 284.7 320 320 320z"/>
</symbol>

<symbol id="icon-facebook" viewBox="0 0 640 640">
  <path d="M240 363.3L240 576L356 576L356 363.3L442.5 363.3L460.5 265.5L356 265.5L356 230.9C356 179.2 376.3 159.4 428.7 159.4C445 159.4 458.1 159.8 465.7 160.6L465.7 71.9C451.4 68 416.4 64 396.2 64C289.3 64 240 114.5 240 223.4L240 265.5L174 265.5L174 363.3L240 363.3z"/>
</symbol>

<symbol id="icon-instagram" viewBox="0 0 640 640">
  <path d="M320.3 205C256.8 204.8 205.2 256.2 205 319.7C204.8 383.2 256.2 434.8 319.7 435C383.2 435.2 434.8 383.8 435 320.3C435.2 256.8 383.8 205.2 320.3 205zM319.7 245.4C360.9 245.2 394.4 278.5 394.6 319.7C394.8 360.9 361.5 394.4 320.3 394.6C279.1 394.8 245.6 361.5 245.4 320.3C245.2 279.1 278.5 245.6 319.7 245.4zM413.1 200.3C413.1 185.5 425.1 173.5 439.9 173.5C454.7 173.5 466.7 185.5 466.7 200.3C466.7 215.1 454.7 227.1 439.9 227.1C425.1 227.1 413.1 215.1 413.1 200.3zM542.8 227.5C541.1 191.6 532.9 159.8 506.6 133.6C480.4 107.4 448.6 99.2 412.7 97.4C375.7 95.3 264.8 95.3 227.8 97.4C192 99.1 160.2 107.3 133.9 133.5C107.6 159.7 99.5 191.5 97.7 227.4C95.6 264.4 95.6 375.3 97.7 412.3C99.4 448.2 107.6 480 133.9 506.2C160.2 532.4 191.9 540.6 227.8 542.4C264.8 544.5 375.7 544.5 412.7 542.4C448.6 540.7 480.4 532.5 506.6 506.2C532.8 480 541 448.2 542.8 412.3C544.9 375.3 544.9 264.5 542.8 227.5zM495 452C487.2 471.6 472.1 486.7 452.4 494.6C422.9 506.3 352.9 503.6 320.3 503.6C287.7 503.6 217.6 506.2 188.2 494.6C168.6 486.8 153.5 471.7 145.6 452C133.9 422.5 136.6 352.5 136.6 319.9C136.6 287.3 134 217.2 145.6 187.8C153.4 168.2 168.5 153.1 188.2 145.2C217.7 133.5 287.7 136.2 320.3 136.2C352.9 136.2 423 133.6 452.4 145.2C472 153 487.1 168.1 495 187.8C506.7 217.3 504 287.3 504 319.9C504 352.5 506.7 422.6 495 452z"/>
</symbol>

<symbol id="icon-linkedin" viewBox="0 0 640 640">
  <path d="M196.3 512L103.4 512L103.4 212.9L196.3 212.9L196.3 512zM149.8 172.1C120.1 172.1 96 147.5 96 117.8C96 103.5 101.7 89.9 111.8 79.8C121.9 69.7 135.6 64 149.8 64C164 64 177.7 69.7 187.8 79.8C197.9 89.9 203.6 103.6 203.6 117.8C203.6 147.5 179.5 172.1 149.8 172.1zM543.9 512L451.2 512L451.2 366.4C451.2 331.7 450.5 287.2 402.9 287.2C354.6 287.2 347.2 324.9 347.2 363.9L347.2 512L254.4 512L254.4 212.9L343.5 212.9L343.5 253.7L344.8 253.7C357.2 230.2 387.5 205.4 432.7 205.4C526.7 205.4 544 267.3 544 347.7L544 512L543.9 512z"/>
</symbol>

<symbol id="icon-calendar" viewBox="0 0 640 640">
  <path d="M224 64C241.7 64 256 78.3 256 96L256 128L384 128L384 96C384 78.3 398.3 64 416 64C433.7 64 448 78.3 448 96L448 128L480 128C515.3 128 544 156.7 544 192L544 480C544 515.3 515.3 544 480 544L160 544C124.7 544 96 515.3 96 480L96 192C96 156.7 124.7 128 160 128L192 128L192 96C192 78.3 206.3 64 224 64zM160 304L160 336C160 344.8 167.2 352 176 352L208 352C216.8 352 224 344.8 224 336L224 304C224 295.2 216.8 288 208 288L176 288C167.2 288 160 295.2 160 304zM288 304L288 336C288 344.8 295.2 352 304 352L336 352C344.8 352 352 344.8 352 336L352 304C352 295.2 344.8 288 336 288L304 288C295.2 288 288 295.2 288 304zM432 288C423.2 288 416 295.2 416 304L416 336C416 344.8 423.2 352 432 352L464 352C472.8 352 480 344.8 480 336L480 304C480 295.2 472.8 288 464 288L432 288zM160 432L160 464C160 472.8 167.2 480 176 480L208 480C216.8 480 224 472.8 224 464L224 432C224 423.2 216.8 416 208 416L176 416C167.2 416 160 423.2 160 432zM304 416C295.2 416 288 423.2 288 432L288 464C288 472.8 295.2 480 304 480L336 480C344.8 480 352 472.8 352 464L352 432C352 423.2 344.8 416 336 416L304 416zM416 432L416 464C416 472.8 423.2 480 432 480L464 480C472.8 480 480 472.8 480 464L480 432C480 423.2 472.8 416 464 416L432 416C423.2 416 416 423.2 416 432z"/>
</symbol>

<symbol id="icon-exit" viewBox="0 0 640 640">
  <path d="M569 337C578.4 327.6 578.4 312.4 569 303.1L425 159C418.1 152.1 407.8 150.1 398.8 153.8C389.8 157.5 384 166.3 384 176L384 256L272 256C245.5 256 224 277.5 224 304L224 336C224 362.5 245.5 384 272 384L384 384L384 464C384 473.7 389.8 482.5 398.8 486.2C407.8 489.9 418.1 487.9 425 481L569 337zM224 160C241.7 160 256 145.7 256 128C256 110.3 241.7 96 224 96L160 96C107 96 64 139 64 192L64 448C64 501 107 544 160 544L224 544C241.7 544 256 529.7 256 512C256 494.3 241.7 480 224 480L160 480C142.3 480 128 465.7 128 448L128 192C128 174.3 142.3 160 160 160L224 160z"/>
</symbol>

<symbol id="icon-time" viewBox="0 0 640 640">
  <path d="M528 320C528 434.9 434.9 528 320 528C205.1 528 112 434.9 112 320C112 205.1 205.1 112 320 112C434.9 112 528 205.1 528 320zM64 320C64 461.4 178.6 576 320 576C461.4 576 576 461.4 576 320C576 178.6 461.4 64 320 64C178.6 64 64 178.6 64 320zM296 184L296 320C296 328 300 335.5 306.7 340L402.7 404C413.7 411.4 428.6 408.4 436 397.3C443.4 386.2 440.4 371.4 429.3 364L344 307.2L344 184C344 170.7 333.3 160 320 160C306.7 160 296 170.7 296 184z"/>
</symbol>

<symbol id="icon-validate" viewBox="0 0 640 640">
  <path d="M530.8 134.1C545.1 144.5 548.3 164.5 537.9 178.8L281.9 530.8C276.4 538.4 267.9 543.1 258.5 543.9C249.1 544.7 240 541.2 233.4 534.6L105.4 406.6C92.9 394.1 92.9 373.8 105.4 361.3C117.9 348.8 138.2 348.8 150.7 361.3L252.2 462.8L486.2 141.1C496.6 126.8 516.6 123.6 530.9 134z"/>
</symbol>

<symbol id="icon-cross" viewBox="0 0 640 640">
  <path d="M183.1 137.4C170.6 124.9 150.3 124.9 137.8 137.4C125.3 149.9 125.3 170.2 137.8 182.7L275.2 320L137.9 457.4C125.4 469.9 125.4 490.2 137.9 502.7C150.4 515.2 170.7 515.2 183.2 502.7L320.5 365.3L457.9 502.6C470.4 515.1 490.7 515.1 503.2 502.6C515.7 490.1 515.7 469.8 503.2 457.3L365.8 320L503.1 182.6C515.6 170.1 515.6 149.8 503.1 137.3C490.6 124.8 470.3 124.8 457.8 137.3L320.5 274.7L183.1 137.4z"/>
</symbol>

<symbol id="icon-plus" viewBox="0 0 640 640">
  <path d="M352 128C352 110.3 337.7 96 320 96C302.3 96 288 110.3 288 128L288 288L128 288C110.3 288 96 302.3 96 320C96 337.7 110.3 352 128 352L288 352L288 512C288 529.7 302.3 544 320 544C337.7 544 352 529.7 352 512L352 352L512 352C529.7 352 544 337.7 544 320C544 302.3 529.7 288 512 288L352 288L352 128z"/>
</symbol>

<symbol id="icon-chevron-left" viewBox="0 0 640 640">
  <path d="M169.4 297.4C156.9 309.9 156.9 330.2 169.4 342.7L361.4 534.7C373.9 547.2 394.2 547.2 406.7 534.7C419.2 522.2 419.2 501.9 406.7 489.4L237.3 320L406.6 150.6C419.1 138.1 419.1 117.8 406.6 105.3C394.1 92.8 373.8 92.8 361.3 105.3L169.3 297.3z"/>
</symbol>

<symbol id="icon-chevron-right" viewBox="0 0 640 640">
  <path d="M471.1 297.4C483.6 309.9 483.6 330.2 471.1 342.7L279.1 534.7C266.6 547.2 246.3 547.2 233.8 534.7C221.3 522.2 221.3 501.9 233.8 489.4L403.2 320L233.9 150.6C221.4 138.1 221.4 117.8 233.9 105.3C246.4 92.8 266.7 92.8 279.2 105.3L471.2 297.3z"/>
</symbol>

<symbol id="icon-chevron-down" viewBox="0 0 640 640">
  <path d="M297.4 470.6C309.9 483.1 330.2 483.1 342.7 470.6L534.7 278.6C547.2 266.1 547.2 245.8 534.7 233.3C522.2 220.8 501.9 220.8 489.4 233.3L320 402.7L150.6 233.4C138.1 220.9 117.8 220.9 105.3 233.4C92.8 245.9 92.8 266.2 105.3 278.7L297.3 470.7z"/>
</symbol>

<symbol id="icon-loupe" viewBox="0 0 640 640">
  <path d="M480 272C480 317.9 465.1 360.3 440 394.7L566.6 521.4C579.1 533.9 579.1 554.2 566.6 566.7C554.1 579.2 533.8 579.2 521.3 566.7L394.7 440C360.3 465.1 317.9 480 272 480C157.1 480 64 386.9 64 272C64 157.1 157.1 64 272 64C386.9 64 480 157.1 480 272zM168 280L168 344C168 357.3 178.7 368 192 368C205.3 368 216 357.3 216 344L216 280C216 266.7 205.3 256 192 256C178.7 256 168 266.7 168 280zM248 184L248 344C248 357.3 258.7 368 272 368C285.3 368 296 357.3 296 344L296 184C296 170.7 285.3 160 272 160C258.7 160 248 170.7 248 184zM328 248L328 344C328 357.3 338.7 368 352 368C365.3 368 376 357.3 376 344L376 248C376 234.7 365.3 224 352 224C338.7 224 328 234.7 328 248z"/>
</symbol>

<symbol id="icon-task" viewBox="0 0 640 640">
  <path d="M197.8 100.3C208.7 107.9 211.3 122.9 203.7 133.7L147.7 213.7C143.6 219.5 137.2 223.2 130.1 223.8C123 224.4 116 222 111 217L71 177C61.7 167.6 61.7 152.4 71 143C80.3 133.6 95.6 133.7 105 143L124.8 162.8L164.4 106.2C172 95.3 187 92.7 197.8 100.3zM197.8 260.3C208.7 267.9 211.3 282.9 203.7 293.7L147.7 373.7C143.6 379.5 137.2 383.2 130.1 383.8C123 384.4 116 382 111 377L71 337C61.6 327.6 61.6 312.4 71 303.1C80.4 293.8 95.6 293.7 104.9 303.1L124.7 322.9L164.3 266.3C171.9 255.4 186.9 252.8 197.7 260.4zM288 160C288 142.3 302.3 128 320 128L544 128C561.7 128 576 142.3 576 160C576 177.7 561.7 192 544 192L320 192C302.3 192 288 177.7 288 160zM288 320C288 302.3 302.3 288 320 288L544 288C561.7 288 576 302.3 576 320C576 337.7 561.7 352 544 352L320 352C302.3 352 288 337.7 288 320zM224 480C224 462.3 238.3 448 256 448L544 448C561.7 448 576 462.3 576 480C576 497.7 561.7 512 544 512L256 512C238.3 512 224 497.7 224 480zM128 440C150.1 440 168 457.9 168 480C168 502.1 150.1 520 128 520C105.9 520 88 502.1 88 480C88 457.9 105.9 440 128 440z"/>
</symbol>

<symbol id="icon-truck" viewBox="0 0 640 640">
  <path d="M64 160C64 124.7 92.7 96 128 96L416 96C451.3 96 480 124.7 480 160L480 192L530.7 192C547.7 192 564 198.7 576 210.7L621.3 256C633.3 268 640 284.3 640 301.3L640 448C640 483.3 611.3 512 576 512L572.7 512C562.3 548.9 528.3 576 488 576C447.7 576 413.8 548.9 403.3 512L300.7 512C290.3 548.9 256.3 576 216 576C175.7 576 141.8 548.9 131.3 512L128 512C92.7 512 64 483.3 64 448L64 400L24 400C10.7 400 0 389.3 0 376C0 362.7 10.7 352 24 352L136 352C149.3 352 160 341.3 160 328C160 314.7 149.3 304 136 304L24 304C10.7 304 0 293.3 0 280C0 266.7 10.7 256 24 256L200 256C213.3 256 224 245.3 224 232C224 218.7 213.3 208 200 208L24 208C10.7 208 0 197.3 0 184C0 170.7 10.7 160 24 160L64 160zM576 352L576 301.3L530.7 256L480 256L480 352L576 352zM256 488C256 465.9 238.1 448 216 448C193.9 448 176 465.9 176 488C176 510.1 193.9 528 216 528C238.1 528 256 510.1 256 488zM488 528C510.1 528 528 510.1 528 488C528 465.9 510.1 448 488 448C465.9 448 448 465.9 448 488C448 510.1 465.9 528 488 528z"/>
</symbol>

<symbol id="icon-chart" viewBox="0 0 640 640">
  <path d="M256 144C256 117.5 277.5 96 304 96L336 96C362.5 96 384 117.5 384 144L384 496C384 522.5 362.5 544 336 544L304 544C277.5 544 256 522.5 256 496L256 144zM64 336C64 309.5 85.5 288 112 288L144 288C170.5 288 192 309.5 192 336L192 496C192 522.5 170.5 544 144 544L112 544C85.5 544 64 522.5 64 496L64 336zM496 160L528 160C554.5 160 576 181.5 576 208L576 496C576 522.5 554.5 544 528 544L496 544C469.5 544 448 522.5 448 496L448 208C448 181.5 469.5 160 496 160z"/>
</symbol>

<symbol id="icon-arrow" viewBox="0 0 640 640">
  <path d="M566.6 342.6C579.1 330.1 579.1 309.8 566.6 297.3L406.6 137.3C394.1 124.8 373.8 124.8 361.3 137.3C348.8 149.8 348.8 170.1 361.3 182.6L466.7 288L96 288C78.3 288 64 302.3 64 320C64 337.7 78.3 352 96 352L466.7 352L361.3 457.4C348.8 469.9 348.8 490.2 361.3 502.7C373.8 515.2 394.1 515.2 406.6 502.7L566.6 342.7z"/>
</symbol>

<symbol id="icon-leaf" viewBox="0 0 640 640">
  <path d="M535.3 70.7C541.7 64.6 551 62.4 559.6 65.2C569.4 68.5 576 77.7 576 88L576 274.9C576 406.1 467.9 512 337.2 512C260.2 512 193.8 462.5 169.7 393.3C134.3 424.1 112 469.4 112 520C112 533.3 101.3 544 88 544C74.7 544 64 533.3 64 520C64 445.1 102.2 379.1 160.1 340.3C195.4 316.7 237.5 304 280 304L360 304C373.3 304 384 293.3 384 280C384 266.7 373.3 256 360 256L280 256C240.3 256 202.7 264.8 169 280.5C192.3 210.5 258.2 160 336 160C402.4 160 451.8 137.9 484.7 116C503.9 103.2 520.2 87.9 535.4 70.7z"/>
</symbol>

</svg>